<svg width="14" height="20" viewBox="0 0 14 20" fill="none" xmlns="http://www.w3.org/2000/svg">
<path d="M10 15C10.375 13.7539 11.1523 12.6914 11.9219 11.6328C12.125 11.3555 12.3281 11.0781 12.5234 10.7969C13.2969 9.68359 13.75 8.33594 13.75 6.87891C13.75 3.07813 10.6719 0 6.875 0C3.07813 0 0 3.07813 0 6.875C0 8.33203 0.453125 9.68359 1.22656 10.793C1.42188 11.0742 1.625 11.3516 1.82812 11.6289C2.60156 12.6875 3.37891 13.7539 3.75 14.9961H10V15ZM6.875 20C8.60156 20 10 18.6016 10 16.875V16.25H3.75V16.875C3.75 18.6016 5.14844 20 6.875 20ZM3.75 6.875C3.75 7.21875 3.46875 7.5 3.125 7.5C2.78125 7.5 2.5 7.21875 2.5 6.875C2.5 4.45703 4.45703 2.5 6.875 2.5C7.21875 2.5 7.5 2.78125 7.5 3.125C7.5 3.46875 7.21875 3.75 6.875 3.75C5.14844 3.75 3.75 5.14844 3.75 6.875Z" fill="#88B04B"/>
</svg>
